<svg width="24" height="24" viewBox="0 0 24 24" fill="none" xmlns="http://www.w3.org/2000/svg">
<path d="M18.3047 12.9762H18.3056C18.6708 12.9762 19.0323 12.9397 19.3889 12.8768V17.7143V17.9225L19.5367 18.0692L21.5 20.0177V20.3571H3.5V20.0177L5.46333 18.0692L5.61111 17.9225V17.7143V11.4286C5.61111 8.40387 7.60669 5.73838 10.53 4.87874L10.8889 4.77319V4.39905V4.09524C10.8889 3.22256 11.6115 2.50001 12.5 2.50001L12.5012 2.5C12.7304 2.49947 12.9568 2.54972 13.1637 2.64694C13.2437 2.6845 13.32 2.72871 13.3918 2.77893C12.5305 3.85375 12 5.21947 12 6.71429L12 6.7152C12.003 8.37602 12.6692 9.96718 13.8513 11.1404C15.0333 12.3135 16.6347 12.9732 18.3047 12.9762ZM21.5 6.71429C21.5 8.4565 20.0702 9.88096 18.3056 9.88096C16.5409 9.88096 15.1111 8.4565 15.1111 6.71429C15.1111 4.97208 16.5409 3.54762 18.3056 3.54762C20.0702 3.54762 21.5 4.97208 21.5 6.71429ZM14.0315 22.4048C13.822 23.0419 13.2212 23.5 12.5 23.5C12.0715 23.5 11.6613 23.331 11.3594 23.0314C11.1803 22.8536 11.048 22.6385 10.9701 22.4048H14.0315Z" fill="white" stroke="#B1B1B1"/>
</svg>
