<svg width="22" height="24" viewBox="0 0 22 24" fill="none" xmlns="http://www.w3.org/2000/svg">
<path fill-rule="evenodd" clip-rule="evenodd" d="M11 21.75C12.569 21.7525 14.1107 21.3023 15.4688 20.445V17.25C15.4688 16.3549 15.1428 15.4965 14.5626 14.8635C13.9824 14.2306 13.1955 13.875 12.375 13.875H9.625C8.80449 13.875 8.01758 14.2306 7.43739 14.8635C6.8572 15.4965 6.53125 16.3549 6.53125 17.25V20.445C7.88928 21.3023 9.43099 21.7525 11 21.75ZM17.5312 17.25V18.6555C18.7202 17.267 19.5114 15.5297 19.8074 13.6572C20.1035 11.7848 19.8916 9.85877 19.1978 8.11594C18.5039 6.3731 17.3584 4.88942 15.902 3.84727C14.4456 2.80511 12.7418 2.24991 11 2.24991C9.25824 2.24991 7.55443 2.80511 6.09803 3.84727C4.64162 4.88942 3.49609 6.3731 2.80225 8.11594C2.10841 9.85877 1.8965 11.7848 2.19257 13.6572C2.48864 15.5297 3.27978 17.267 4.46875 18.6555V17.25C4.46874 16.0903 4.79712 14.9589 5.40898 14.0106C6.02084 13.0623 6.8863 12.3433 7.887 11.952C7.36778 11.3005 7.03131 10.4998 6.91772 9.64545C6.80412 8.79109 6.91821 7.91911 7.24635 7.13353C7.5745 6.34794 8.10287 5.68191 8.76842 5.21488C9.43398 4.74784 10.2086 4.49951 11 4.49951C11.7914 4.49951 12.566 4.74784 13.2316 5.21488C13.8971 5.68191 14.4255 6.34794 14.7536 7.13353C15.0818 7.91911 15.1959 8.79109 15.0823 9.64545C14.9687 10.4998 14.6322 11.3005 14.113 11.952C15.1137 12.3433 15.9792 13.0623 16.591 14.0106C17.2029 14.9589 17.5313 16.0903 17.5312 17.25ZM11 24C13.9174 24 16.7153 22.7357 18.7782 20.4853C20.8411 18.2348 22 15.1826 22 12C22 8.8174 20.8411 5.76516 18.7782 3.51472C16.7153 1.26428 13.9174 0 11 0C8.08262 0 5.28473 1.26428 3.22183 3.51472C1.15893 5.76516 0 8.8174 0 12C0 15.1826 1.15893 18.2348 3.22183 20.4853C5.28473 22.7357 8.08262 24 11 24ZM13.0625 9C13.0625 9.59674 12.8452 10.169 12.4584 10.591C12.0716 11.0129 11.547 11.25 11 11.25C10.453 11.25 9.92839 11.0129 9.54159 10.591C9.1548 10.169 8.9375 9.59674 8.9375 9C8.9375 8.40326 9.1548 7.83097 9.54159 7.40901C9.92839 6.98705 10.453 6.75 11 6.75C11.547 6.75 12.0716 6.98705 12.4584 7.40901C12.8452 7.83097 13.0625 8.40326 13.0625 9Z" fill="#B1B1B1"/>
</svg>
